<svg xmlns="http://www.w3.org/2000/svg" viewBox="0 0 450 450"><defs><style>.cls-1{fill:#6835ff;}.cls-2{fill:#fff;fill-rule:evenodd;}</style></defs><g id="Layer_1" data-name="Layer 1"><circle class="cls-1" cx="225" cy="225" r="224.85" transform="translate(-93.2 225) rotate(-45)"/><path class="cls-2" d="M100,179.87h50.63v170H100ZM125,93.6a30.63,30.63,0,0,1,0,61.26c-16.88,0-30-13.75-30-30.63S108.07,93.6,125,93.6Zm55.64,86.27h50v23.75A57.87,57.87,0,0,1,278.74,178h13.75C324.37,178,350,204.25,350,235.5V349.9H300V334.28h0V258h0c-.63-19.38-13.75-34.38-33.13-34.38h0c-19.38,0-35.64,15-36.26,34.38h0V349.9h-50Z"/></g></svg>