<svg xmlns="http://www.w3.org/2000/svg" viewBox="0 0 450 450"><defs><style>.cls-1{fill:#6835ff;}.cls-2{fill:#fff;fill-rule:evenodd;}</style></defs><g id="Layer_1" data-name="Layer 1"><circle class="cls-1" cx="225" cy="225" r="224.85" transform="translate(-93.2 225) rotate(-45)"/><path class="cls-2" d="M227.49,185c-11.08-58.35,59.08-93.06,100.44-51,0,0,18.46-5.17,34.71-15.51a63.87,63.87,0,0,1-25.85,32.49s22.16-2.95,31.76-8.86c0,0-9.6,19.94-27.33,27.33C350.83,303.21,206.81,384.45,90.11,318c0,0,57.61,2.95,82-25.11,0,0-35.45,2.95-53.17-39.89,0,0,13.29,5.17,26.59-1.47,0,0-41.36-6.65-45.06-56.13,0,0,13.3,10.34,28.07,6.64,0,0-45.79-27.32-19.94-76.81,0,0,48.74,62,118.91,59.83Z"/></g></svg>